<svg xmlns="http://www.w3.org/2000/svg" viewBox="0 0 400 400" width="400" height="400">
  <!-- Shopping Cart SVG based on the provided image -->
  <rect width="400" height="400" fill="#f5f5dc"/>
  
  <!-- Cart wheels -->
  <circle cx="180" cy="330" r="25" fill="#4a5568" stroke="#2d3748" stroke-width="3"/>
  <circle cx="320" cy="330" r="25" fill="#4a5568" stroke="#2d3748" stroke-width="3"/>
  <circle cx="180" cy="330" r="12" fill="white"/>
  <circle cx="320" cy="330" r="12" fill="white"/>
  
  <!-- Cart base -->
  <rect x="120" y="300" width="220" height="30" rx="15" fill="#718096" stroke="#4a5568" stroke-width="2"/>
  
  <!-- Cart handle -->
  <path d="M 80 160 Q 70 150 80 140 L 140 140 Q 150 150 140 160 L 140 300" 
        fill="none" stroke="#718096" stroke-width="8" stroke-linecap="round"/>
  
  <!-- Cart basket -->
  <rect x="160" y="180" width="180" height="120" rx="10" fill="#81a3c4" stroke="#4a5568" stroke-width="3"/>
  <rect x="170" y="190" width="160" height="100" rx="5" fill="#9bb5d1" stroke="#5a6b7d" stroke-width="2"/>
  
  <!-- Supplement container in cart -->
  <rect x="180" y="200" width="120" height="60" rx="8" fill="#cbd5e0" stroke="#4a5568" stroke-width="2"/>
  <rect x="185" y="205" width="110" height="50" rx="5" fill="#e2e8f0"/>
  
  <!-- Container lid -->
  <ellipse cx="240" cy="185" rx="60" ry="15" fill="#ed8936" stroke="#c05621" stroke-width="2"/>
  <ellipse cx="240" cy="180" rx="60" ry="15" fill="#f6ad55"/>
  
  <!-- Cart basket top edge -->
  <rect x="160" y="180" width="180" height="15" rx="10" fill="#a0b8d1" stroke="#4a5568" stroke-width="2"/>
</svg>